<?xml version="1.0" encoding="UTF-8" standalone="no"?>
<svg width="220px" height="28px" viewBox="0 0 220 28" version="1.1" xmlns="http://www.w3.org/2000/svg" xmlns:xlink="http://www.w3.org/1999/xlink" xmlns:sketch="http://www.bohemiancoding.com/sketch/ns">
    <!-- Generator: sketchtool 3.4 (381) - http://www.bohemiancoding.com/sketch -->
    <title>Logo</title>
    <desc>Created with sketchtool.</desc>
    <defs>
        <path id="path-1" d="M0.0515625,0.166469003 L219.502422,0.166469003 L219.502422,30.9433962 L0.0515625,30.9433962"></path>
        <path id="path-3" d="M0.0515625,0.166469003 L219.502422,0.166469003 L219.502422,28.6792453 L0.0515625,28.6792453"></path>
    </defs>
    <g id="January-14th" stroke="none" stroke-width="1" fill="none" fill-rule="evenodd" sketch:type="MSPage">
        <g id="Login" sketch:type="MSArtboardGroup" transform="translate(-546.000000, -310.000000)">
            <g id="Group" sketch:type="MSLayerGroup" transform="translate(375.000000, 112.000000)">
                <g id="Logo">
                    <g transform="translate(171.000000, 198.000000)">
                        <path d="M173.297266,0.677951482 L179.489922,0.677951482 L179.489922,27.469973 L173.297266,27.469973 L173.297266,0.677951482 Z" id="Fill-1" fill="#979796" sketch:type="MSShapeGroup"></path>
                        <g id="Group-5">
                            <mask id="mask-2" sketch:name="Clip 3" fill="white">
                                <use xlink:href="#path-1"></use>
                            </mask>
                            <g id="Clip-3"></g>
                            <path d="M167.783516,10.9662534 L157.532891,10.9662534 L157.532891,0.677951482 L151.341094,0.677951482 L151.341094,10.9662534 L141.089609,10.9662534 L141.089609,17.1816712 L151.341094,17.1816712 L151.341094,27.469973 L157.532891,27.469973 L157.532891,17.1816712 L167.783516,17.1816712 L167.783516,10.9662534" id="Fill-2" fill="#979796" sketch:type="MSShapeGroup" mask="url(#mask-2)"></path>
                            <path d="M22.0696094,27.469973 L21.7430469,14.3120216 L14.3498437,23.7067385 L13.6932813,23.7067385 L6.22875,14.3120216 L5.97265625,27.469973 L0,27.469973 L1.23835937,0.49509434 L2.07710938,0.422641509 L14.1676562,15.7377898 L25.966875,0.422641509 L26.8047656,0.49509434 L28.0775,27.469973 L22.0696094,27.469973" id="Fill-4" fill="#545453" sketch:type="MSShapeGroup" mask="url(#mask-2)"></path>
                        </g>
                        <path d="M44.4082031,11.4242588 L41.7501563,17.8578976 L47.0301563,17.8578976 L44.4082031,11.4242588 L44.4082031,11.4242588 Z M50.9996094,27.469973 L48.9964063,22.6095957 L39.7830469,22.6095957 L37.7798438,27.469973 L31.480625,27.469973 L44.0446875,0.458867925 L44.8817188,0.458867925 L57.4457813,27.469973 L50.9996094,27.469973 L50.9996094,27.469973 Z" id="Fill-6" fill="#545453" sketch:type="MSShapeGroup"></path>
                        <path d="M82.9021875,12.4109973 L82.9021875,25.204097 C79.9528125,26.9214016 76.8203906,27.9090027 72.7778906,27.9090027 C64.948125,27.9090027 58.7571875,22.2809704 58.7571875,14.092938 C58.7571875,5.86781671 65.0194531,0.239784367 73.1044531,0.239784367 C76.60125,0.239784367 79.4045312,1.15407008 82.0642969,2.54274933 L79.4784375,7.54975741 C77.5835156,6.5638814 75.5442187,6.05239892 73.5057812,6.05239892 C68.1888281,6.05239892 65.3485937,9.37660377 65.3485937,14.092938 C65.3485937,19.2103504 68.770625,22.3887871 73.1414062,22.3887871 C75.1085156,22.3887871 76.0907812,22.170566 77.0747656,21.658221 L77.0747656,17.7112668 L71.7217187,17.7112668 L71.7217187,12.4109973 L82.9021875,12.4109973" id="Fill-7" fill="#545453" sketch:type="MSShapeGroup"></path>
                        <path d="M111.393906,27.9814555 L95.2969531,13.4710512 L95.2969531,27.469973 L89.106875,27.469973 L89.106875,0.312237197 L89.945625,0.166469003 L105.823437,14.5673315 L105.823437,0.677951482 L112.013516,0.677951482 L112.013516,27.8719137 L111.393906,27.9814555" id="Fill-8" fill="#545453" sketch:type="MSShapeGroup"></path>
                        <path d="M119.054375,27.469973 L119.054375,0.677951482 L135.953984,0.677951482 L135.953984,6.38016173 L125.245313,6.38016173 L125.245313,11.1689488 L135.006094,11.1689488 L135.006094,16.5778976 L125.245313,16.5778976 L125.245313,21.8048518 L135.953984,21.8048518 L135.953984,27.469973 L119.054375,27.469973" id="Fill-9" fill="#545453" sketch:type="MSShapeGroup"></path>
                        <path d="M199.190234,27.9090027 C190.486484,27.9090027 184.587734,22.0247978 184.587734,14.092938 C184.587734,6.12571429 190.486484,0.239784367 199.190234,0.239784367 C202.287422,0.239784367 205.127656,1.15407008 207.531328,2.57897574 L205.637266,7.84301887 C203.670156,6.74587601 201.448672,6.05239892 199.263281,6.05239892 C194.274609,6.05239892 191.179141,9.12215633 191.179141,14.092938 C191.179141,19.0637197 194.274609,22.1343396 199.263281,22.1343396 C201.448672,22.1343396 203.925391,21.4029111 205.927734,20.1608625 L207.785703,25.4231806 C205.455078,26.9584906 202.24875,27.9090027 199.190234,27.9090027" id="Fill-10" fill="#545453" sketch:type="MSShapeGroup"></path>
                        <g id="Group-14">
                            <mask id="mask-4" sketch:name="Clip 12" fill="white">
                                <use xlink:href="#path-3"></use>
                            </mask>
                            <g id="Clip-12"></g>
                            <path d="M212.544922,1.28345013 L212.544922,4.86037736 L211.495625,4.86037736 L211.495625,1.28345013 L210.136094,1.28345013 L210.136094,0.317412399 L213.903594,0.317412399 L213.903594,1.28345013 L212.544922,1.28345013" id="Fill-11" fill="#545453" sketch:type="MSShapeGroup" mask="url(#mask-4)"></path>
                            <path d="M218.484062,4.86037736 L218.428203,2.6290027 L217.174375,4.22210243 L217.063516,4.22210243 L215.796797,2.6290027 L215.753828,4.86037736 L214.740625,4.86037736 L214.951172,0.286361186 L215.092969,0.273423181 L217.143437,2.87051213 L219.144922,0.273423181 L219.285859,0.286361186 L219.503281,4.86037736 L218.484062,4.86037736" id="Fill-13" fill="#545453" sketch:type="MSShapeGroup" mask="url(#mask-4)"></path>
                        </g>
                    </g>
                </g>
            </g>
        </g>
    </g>
</svg>